<svg width="35" height="28" viewBox="0 0 35 28" fill="none" xmlns="http://www.w3.org/2000/svg">
<g opacity="0.5">
<path d="M20.2698 5.83336C20.6081 5.83283 20.936 5.92777 21.1964 6.10169C21.3431 6.19964 21.4642 6.31992 21.5531 6.45566C21.6419 6.5914 21.6966 6.73992 21.7141 6.89273C21.7316 7.04553 21.7115 7.19962 21.655 7.34616C21.5984 7.49269 21.5066 7.62881 21.3847 7.74669L14.8983 14L21.153 20.265C21.2733 20.3844 21.3631 20.5217 21.4173 20.6691C21.4715 20.8165 21.489 20.971 21.4688 21.1239C21.4486 21.2768 21.3911 21.4249 21.2997 21.5598C21.2082 21.6947 21.0846 21.8138 20.9358 21.91C20.786 22.0162 20.6106 22.0963 20.4206 22.1453C20.2305 22.1943 20.0299 22.2111 19.8315 22.1947C19.633 22.1783 19.4408 22.1289 19.2671 22.0498C19.0934 21.9707 18.9418 21.8636 18.822 21.735L11.8289 14.735C11.6159 14.5263 11.4995 14.2644 11.4995 13.9942C11.4995 13.724 11.6159 13.4621 11.8289 13.2534L19.0681 6.25336C19.2134 6.11218 19.3979 6.00057 19.6067 5.92759C19.8154 5.85462 20.0426 5.82234 20.2698 5.83336Z" fill="#231F20"/>
</g>
</svg>
