<?xml version="1.0" standalone="no"?>
<!DOCTYPE svg PUBLIC "-//W3C//DTD SVG 20010904//EN"
 "http://www.w3.org/TR/2001/REC-SVG-20010904/DTD/svg10.dtd">
<svg version="1.0" xmlns="http://www.w3.org/2000/svg"
 width="254.000000pt" height="255.000000pt" viewBox="0 0 254.000000 255.000000"
 preserveAspectRatio="xMidYMid meet">

<g transform="translate(0.000000,255.000000) scale(0.100000,-0.100000)"
fill="#000000" stroke="none">
<path d="M1164 2345 c-185 -32 -371 -140 -544 -314 -155 -157 -251 -294 -320
-462 -141 -339 -162 -542 -81 -775 40 -113 71 -165 150 -248 142 -148 315
-254 481 -296 47 -12 104 -28 128 -36 32 -10 98 -14 258 -14 l216 0 200 66
c110 37 227 82 260 100 93 53 205 133 255 183 116 116 174 343 172 669 0 96
-5 186 -10 201 -6 16 -20 73 -33 127 -51 214 -87 300 -195 460 -60 89 -135
174 -153 174 -6 0 -40 21 -77 48 -96 69 -141 97 -181 112 -53 19 -422 23 -526
5z m411 -139 c98 -14 142 -33 222 -93 29 -21 65 -45 80 -54 67 -37 206 -264
249 -405 61 -204 73 -279 74 -452 0 -228 -20 -362 -72 -467 -37 -75 -46 -85
-140 -156 -120 -89 -173 -115 -370 -181 l-183 -62 -175 -4 c-170 -3 -178 -3
-295 28 -66 17 -148 42 -183 56 -138 53 -349 230 -398 332 -89 189 -97 398
-23 604 79 218 131 317 232 443 175 216 362 354 547 404 92 24 299 28 435 7z"/>
<path d="M1383 1329 c-47 -17 -57 -86 -18 -124 32 -33 68 -32 94 1 49 63 -5
150 -76 123z"/>
<path d="M1150 1310 c-41 -41 -35 -93 15 -126 21 -14 26 -14 53 0 33 17 42 34
42 77 0 59 -69 90 -110 49z"/>
<path d="M786 1178 c-24 -34 -20 -49 32 -129 61 -93 140 -167 223 -211 63 -33
65 -33 199 -33 139 0 182 9 282 61 40 21 186 161 204 197 28 53 -6 117 -61
117 -22 0 -65 -38 -65 -57 0 -17 -113 -119 -156 -141 -49 -25 -160 -52 -213
-52 -45 0 -123 25 -171 56 -42 26 -73 59 -130 139 -52 72 -56 75 -97 75 -22 0
-37 -7 -47 -22z"/>
</g>
</svg>
