<?xml version="1.0" encoding="iso-8859-1"?>
<!-- Generator: Adobe Illustrator 19.0.0, SVG Export Plug-In . SVG Version: 6.00 Build 0)  -->
<svg version="1.1" id="Capa_1" xmlns="http://www.w3.org/2000/svg" xmlns:xlink="http://www.w3.org/1999/xlink" x="0px" y="0px"
	 viewBox="0 0 489.901 489.901" style="enable-background:new 0 0 489.901 489.901;" xml:space="preserve">
<g>
	<g>
		<circle cx="124.8" cy="213.75" r="20.5"/>
		<circle cx="244.5" cy="213.75" r="20.5"/>
		<circle cx="364.1" cy="213.75" r="20.5"/>
		<circle cx="124.8" cy="352.15" r="20.5"/>
		<circle cx="244.5" cy="352.15" r="20.5"/>
		<circle cx="364.1" cy="352.15" r="20.5"/>
		<path d="M469.2,55.05h-48.9v-21.8c0-11.4-9.4-20.8-20.8-20.8s-20.8,9.4-20.8,20.8v21.8H110.3v-21.8c0-11.4-9.4-20.8-20.8-20.8
			s-20.8,9.4-20.8,20.8v21.8H20.8C9.4,55.05,0,64.45,0,75.85v380.8c0,11.4,9.4,20.8,20.8,20.8h447.3c11.4,0,20.8-8.3,21.8-20.8
			V75.85C490,64.45,480.6,55.05,469.2,55.05z M448.4,436.85H40.6V96.75h28.1v15.6c0,11.4,9.4,20.8,20.8,20.8s20.8-9.4,20.8-20.8
			v-15.6h268.4v15.6c0,11.4,9.4,20.8,20.8,20.8c10.4,0,19.8-9.4,20.8-20.8v-15.6h28.1V436.85z"/>
	</g>
</g>
<g>
</g>
<g>
</g>
<g>
</g>
<g>
</g>
<g>
</g>
<g>
</g>
<g>
</g>
<g>
</g>
<g>
</g>
<g>
</g>
<g>
</g>
<g>
</g>
<g>
</g>
<g>
</g>
<g>
</g>
</svg>
