<?xml version="1.0" encoding="iso-8859-1"?>
<!-- Generator: Adobe Illustrator 18.0.0, SVG Export Plug-In . SVG Version: 6.00 Build 0)  -->
<!DOCTYPE svg PUBLIC "-//W3C//DTD SVG 1.1//EN" "http://www.w3.org/Graphics/SVG/1.1/DTD/svg11.dtd">
<svg version="1.1" id="Capa_1" xmlns="http://www.w3.org/2000/svg" xmlns:xlink="http://www.w3.org/1999/xlink" x="0px" y="0px"
	 viewBox="0 0 297 297" style="enable-background:new 0 0 297 297;" xml:space="preserve">
<g>
	<path d="M268.338,64.67H203.56l-13.586-27.446c-1.667-3.368-5.101-5.499-8.858-5.499h-48.923c-3.758,0-7.19,2.131-8.857,5.499
		L109.749,64.67H28.662C12.858,64.67,0,77.527,0,93.332v143.281c0,15.804,12.858,28.662,28.662,28.662h239.676
		c15.804,0,28.662-12.858,28.662-28.662V93.332C297,77.527,284.142,64.67,268.338,64.67z M138.328,51.492h36.651l6.523,13.178
		h-49.697L138.328,51.492z M268.338,84.437c4.905,0,8.896,3.99,8.896,8.896v20.261h-36.379
		c-15.049-13.226-34.745-21.255-56.278-21.255c-21.534,0-41.232,8.029-56.28,21.255H19.767V93.332c0-4.905,3.99-8.896,8.896-8.896
		H268.338z M184.576,244.056c-36.242,0-65.728-29.597-65.728-65.976s29.485-65.976,65.728-65.976
		c36.239,0,65.724,29.597,65.724,65.976S220.815,244.056,184.576,244.056z M19.767,236.613V133.36h91.893
		c-7.974,13.028-12.578,28.345-12.578,44.72c0,27.331,12.817,51.716,32.739,67.428H28.662
		C23.757,245.508,19.767,241.518,19.767,236.613z M268.338,245.508h-31.009c19.922-15.712,32.737-40.097,32.737-67.428
		c0-16.375-4.604-31.691-12.576-44.72h19.743v103.253C277.233,241.518,273.243,245.508,268.338,245.508z"/>
	<path d="M184.576,127.988c-27.547,0-49.958,22.471-49.958,50.092s22.411,50.092,49.958,50.092
		c27.545,0,49.955-22.471,49.955-50.092S212.121,127.988,184.576,127.988z M184.576,208.404c-16.648,0-30.191-13.604-30.191-30.324
		s13.543-30.324,30.191-30.324c16.645,0,30.188,13.604,30.188,30.324S201.222,208.404,184.576,208.404z"/>
</g>
<g>
</g>
<g>
</g>
<g>
</g>
<g>
</g>
<g>
</g>
<g>
</g>
<g>
</g>
<g>
</g>
<g>
</g>
<g>
</g>
<g>
</g>
<g>
</g>
<g>
</g>
<g>
</g>
<g>
</g>
</svg>
