<svg width="35" height="28" viewBox="0 0 35 28" fill="none" xmlns="http://www.w3.org/2000/svg">
<g opacity="0.5">
<path d="M14.4785 22.1666C14.1402 22.1672 13.8123 22.0722 13.5518 21.8983C13.4052 21.8004 13.2841 21.6801 13.1952 21.5443C13.1064 21.4086 13.0517 21.2601 13.0342 21.1073C13.0167 20.9545 13.0368 20.8004 13.0933 20.6538C13.1499 20.5073 13.2417 20.3712 13.3636 20.2533L19.85 14L13.5953 7.73497C13.475 7.61564 13.3852 7.47832 13.331 7.33093C13.2768 7.18353 13.2593 7.02896 13.2795 6.87609C13.2997 6.72323 13.3571 6.57508 13.4486 6.44017C13.5401 6.30526 13.6637 6.18625 13.8125 6.08997C13.9623 5.98376 14.1377 5.90365 14.3277 5.85466C14.5178 5.80568 14.7184 5.78887 14.9168 5.8053C15.1153 5.82174 15.3075 5.87105 15.4812 5.95015C15.6549 6.02925 15.8064 6.13644 15.9263 6.26497L22.9194 13.265C23.1324 13.4737 23.2488 13.7356 23.2488 14.0058C23.2488 14.276 23.1324 14.5379 22.9194 14.7466L15.6802 21.7466C15.5349 21.8878 15.3504 21.9994 15.1416 22.0724C14.9328 22.1454 14.7056 22.1777 14.4785 22.1666Z" fill="#231F20"/>
</g>
</svg>
