<svg width="32" height="30" viewBox="0 0 54 51" fill="none" xmlns="http://www.w3.org/2000/svg">
<path d="M27 44.2765C26.7039 44.2781 26.4103 44.2249 26.1362 44.12C25.8621 44.015 25.6127 43.8604 25.4025 43.665L7.92 27.2616C5.72707 25.1852 4.49699 22.3819 4.49699 19.4606C4.49699 16.5392 5.72707 13.7359 7.92 11.6595C10.1301 9.59431 13.1239 8.4346 16.245 8.4346C19.3661 8.4346 22.3599 9.59431 24.57 11.6595L27 13.9365L29.43 11.6595C31.6401 9.59431 34.6339 8.4346 37.755 8.4346C40.8761 8.4346 43.8699 9.59431 46.08 11.6595C48.2729 13.7359 49.503 16.5392 49.503 19.4606C49.503 22.3819 48.2729 25.1852 46.08 27.2616L28.5975 43.665C28.3873 43.8604 28.1379 44.015 27.8638 44.12C27.5897 44.2249 27.2961 44.2781 27 44.2765Z" fill="#F7797D"/>
</svg>
