<svg width="32" height="32" viewBox="0 0 54 54" fill="none" xmlns="http://www.w3.org/2000/svg">
<path d="M27 47.25C26.7038 47.2517 26.4103 47.195 26.1362 47.083C25.862 46.971 25.6127 46.806 25.4025 46.5975L7.91996 29.0925C5.72702 26.8767 4.49695 23.885 4.49695 20.7675C4.49695 17.65 5.72702 14.6584 7.91996 12.4425C10.13 10.2387 13.1238 9.00107 16.245 9.00107C19.3661 9.00107 22.3599 10.2387 24.57 12.4425L27 14.8725L29.43 12.4425C31.64 10.2387 34.6338 9.00107 37.755 9.00107C40.8761 9.00107 43.8699 10.2387 46.08 12.4425C48.2729 14.6584 49.503 17.65 49.503 20.7675C49.503 23.885 48.2729 26.8767 46.08 29.0925L28.5975 46.5975C28.3872 46.806 28.1379 46.971 27.8637 47.083C27.5896 47.195 27.2961 47.2517 27 47.25ZM16.245 13.5C15.2925 13.4957 14.3486 13.6804 13.468 14.0435C12.5874 14.4065 11.7876 14.9407 11.115 15.615C9.75609 16.981 8.99329 18.8295 8.99329 20.7563C8.99329 22.6831 9.75609 24.5315 11.115 25.8975L27 41.805L42.885 25.8975C44.2438 24.5315 45.0066 22.6831 45.0066 20.7563C45.0066 18.8295 44.2438 16.981 42.885 15.615C41.4982 14.3049 39.6627 13.5749 37.755 13.5749C35.8472 13.5749 34.0117 14.3049 32.625 15.615L28.5975 19.665C28.3883 19.8759 28.1394 20.0433 27.8653 20.1575C27.5911 20.2717 27.297 20.3306 27 20.3306C26.7029 20.3306 26.4088 20.2717 26.1347 20.1575C25.8605 20.0433 25.6116 19.8759 25.4025 19.665L21.375 15.615C20.7023 14.9407 19.9025 14.4065 19.0219 14.0435C18.1413 13.6804 17.1974 13.4957 16.245 13.5Z" fill="#F7797D"/>
</svg>
