<?xml version="1.0" encoding="iso-8859-1"?>
<!-- Generator: Adobe Illustrator 19.0.0, SVG Export Plug-In . SVG Version: 6.00 Build 0)  -->
<svg version="1.1" id="Capa_1" xmlns="http://www.w3.org/2000/svg" xmlns:xlink="http://www.w3.org/1999/xlink" x="0px" y="0px"
	 viewBox="0 0 490 490" style="enable-background:new 0 0 490 490;" xml:space="preserve">
<g>
	<path d="M490,244.95c0,12.6-10.2,22.9-22.9,22.9H180.6c-12.6,0-22.9-10.2-22.9-22.9c0-12.6,10.2-22.9,22.9-22.9h286.5
		C479.8,222.05,490,232.35,490,244.95z M55.4,189.55c-30.6,0-55.4,24.8-55.4,55.4s24.8,55.4,55.4,55.4s55.4-24.8,55.4-55.4
		S86,189.55,55.4,189.55z M467.1,53.95H180.6c-12.6,0-22.9,10.2-22.9,22.9c0,12.6,10.2,22.9,22.9,22.9h286.5
		c12.6,0,22.9-10.2,22.9-22.9S479.8,53.95,467.1,53.95z M55.4,21.45C24.8,21.45,0,46.25,0,76.85s24.8,55.4,55.4,55.4
		s55.4-24.8,55.4-55.4S86,21.45,55.4,21.45z M467.1,390.25H180.6c-12.6,0-22.9,10.2-22.9,22.9c0,12.6,10.2,22.9,22.9,22.9h286.5
		c12.6,0,22.9-10.2,22.9-22.9S479.8,390.25,467.1,390.25z M55.4,357.75c-30.6,0-55.4,24.8-55.4,55.4s24.8,55.4,55.4,55.4
		s55.4-24.8,55.4-55.4C110.8,382.45,86,357.75,55.4,357.75z"/>
</g>
<g>
</g>
<g>
</g>
<g>
</g>
<g>
</g>
<g>
</g>
<g>
</g>
<g>
</g>
<g>
</g>
<g>
</g>
<g>
</g>
<g>
</g>
<g>
</g>
<g>
</g>
<g>
</g>
<g>
</g>
</svg>
