<?xml version='1.0' encoding='iso-8859-1'?>
<svg version="1.1" xmlns="http://www.w3.org/2000/svg" viewBox="0 0 349.661 349.661" xmlns:xlink="http://www.w3.org/1999/xlink" enable-background="new 0 0 349.661 349.661">
  <g>
    <path d="M174.831,0C102.056,0,42.849,59.207,42.849,131.981c0,30.083,21.156,74.658,62.881,132.485   c30.46,42.215,61.363,76.607,61.671,76.95l7.429,8.245l7.429-8.245c0.309-0.342,31.211-34.734,61.671-76.95   c41.725-57.828,62.881-102.402,62.881-132.485C306.812,59.207,247.605,0,174.831,0z M174.83,319.617   c-37.058-42.692-111.98-139.048-111.98-187.636C62.849,70.235,113.084,20,174.831,20s111.981,50.235,111.981,111.981   C286.812,180.54,211.888,276.915,174.83,319.617z"/>
    <circle cx="174.831" cy="131.982" r="49.696"/>
  </g>
</svg>
