<svg width="20" height="20" viewBox="0 0 24 24" fill="none" xmlns="http://www.w3.org/2000/svg">
<path d="M23.9984 3.91762V8.10765C23.9984 10.8513 23.0813 11.8683 20.601 12.0084C20.5163 12.0119 20.4318 11.9982 20.3526 11.9679C20.2734 11.9376 20.2012 11.8915 20.1405 11.8323C20.0798 11.7732 20.0318 11.7023 19.9994 11.6239C19.9671 11.5456 19.9511 11.4614 19.9524 11.3767V9.89782C19.9524 5.85048 18.1492 4.04734 14.1019 4.04734H12.623C12.5383 4.04865 12.4541 4.03264 12.3758 4.00029C12.2974 3.96794 12.2265 3.91993 12.1673 3.8592C12.1082 3.79848 12.0621 3.72631 12.0318 3.64713C12.0015 3.56795 11.9877 3.48342 11.9913 3.39873C12.1301 0.918435 13.1484 0 15.892 0H20.0821C23.0528 0 23.9997 0.946974 23.9997 3.91762H23.9984Z" fill="#A1A1A1"/>
<path d="M18.0055 9.89915V14.1022C18.0055 17.0598 17.0585 18.0068 14.1009 18.0068H9.89783C6.94014 18.0068 5.99316 17.0598 5.99316 14.1022V9.89915C5.99316 6.94148 6.94014 5.99451 9.89783 5.99451H14.1009C17.0585 5.99451 18.0055 6.94148 18.0055 9.89915Z" fill="#A1A1A1"/>
<path d="M11.3767 19.9515C11.4616 19.9502 11.5458 19.9662 11.6243 19.9986C11.7027 20.0311 11.7737 20.0792 11.8329 20.1401C11.8921 20.2009 11.9382 20.2732 11.9683 20.3526C11.9985 20.4319 12.0122 20.5166 12.0085 20.6014C11.8684 23.0817 10.8513 24.0001 8.1077 24.0001H3.91764C0.946979 24.0001 0 23.0531 0 20.0825V15.8912C0 13.1475 0.91844 12.1292 3.39875 11.9904C3.48333 11.9869 3.56775 12.0006 3.64684 12.0308C3.72594 12.061 3.79804 12.107 3.85875 12.166C3.91945 12.225 3.96749 12.2958 3.99992 12.374C4.03235 12.4522 4.04849 12.5362 4.04736 12.6209V14.0997C4.04736 18.147 5.85052 19.9502 9.89788 19.9502H11.3767V19.9515Z" fill="#A1A1A1"/>
</svg>
