<svg width="20" height="20" viewBox="0 0 24 24" fill="none" xmlns="http://www.w3.org/2000/svg">
<path d="M16.8 0H7.2C2.4 0 0 2.4 0 7.2V22.8C0 23.46 0.54 24 1.2 24H16.8C21.6 24 24 21.6 24 16.8V7.2C24 2.4 21.6 0 16.8 0ZM16.2 12.9H12.9V16.2C12.9 16.692 12.492 17.1 12 17.1C11.508 17.1 11.1 16.692 11.1 16.2V12.9H7.8C7.308 12.9 6.9 12.492 6.9 12C6.9 11.508 7.308 11.1 7.8 11.1H11.1V7.8C11.1 7.308 11.508 6.9 12 6.9C12.492 6.9 12.9 7.308 12.9 7.8V11.1H16.2C16.692 11.1 17.1 11.508 17.1 12C17.1 12.492 16.692 12.9 16.2 12.9Z" fill="#A1A1A1"/>
</svg>
