<?xml version="1.0" encoding="iso-8859-1"?>
<!-- Generator: Adobe Illustrator 19.0.0, SVG Export Plug-In . SVG Version: 6.00 Build 0)  -->
<svg version="1.1" id="Layer_1" xmlns="http://www.w3.org/2000/svg" xmlns:xlink="http://www.w3.org/1999/xlink" width="50" height="50" x="0px" y="0px"
	 viewBox="0 0 486.403 486.403" style="enable-background:new 0 0 486.403 486.403;" xml:space="preserve">
<g>
	<g>
		<g>
			<path d="M477.881,64.295c1.184,0.122,2.768,0.285-0.006-0.001c-0.079-0.008-0.211-0.022-0.366-0.038
				c-0.646-0.066-0.659-0.068-0.38-0.039c-9.109-0.932-88.807-8.998-117.077-8.998c-28.041,0-106.692,7.938-116.85,8.975
				c-10.158-1.037-88.809-8.975-116.85-8.975c-29.363,0-114.225,8.704-117.823,9.075c-4.845,0.499-8.527,4.58-8.527,9.45v310.65
				c0,2.689,1.139,5.252,3.136,7.053c1.996,1.801,4.661,2.675,7.337,2.397c0.871-0.09,87.485-8.975,115.877-8.975
				c28.094,0,113.184,8.699,115.808,8.968c0.666,0.073,1.349,0.076,2.016,0.007c0.871-0.09,87.485-8.975,115.877-8.975
				c28.391,0,115.006,8.885,115.877,8.975c0.326,0.033,0.649,0.05,0.973,0.05c2.34,0,4.611-0.865,6.364-2.447
				c1.996-1.801,3.136-4.364,3.136-7.053V73.744C486.402,68.877,482.722,64.797,477.881,64.295z M233.702,373.892
				c-24.294-2.399-83.749-8.023-107.35-8.023s-83.057,5.624-107.35,8.023V82.338c22.675-2.244,84.262-8.119,107.35-8.119
				s84.675,5.875,107.35,8.119V373.892z M467.402,373.892c-24.294-2.399-83.749-8.023-107.35-8.023s-83.056,5.623-107.35,8.023
				V82.338c22.675-2.244,84.262-8.119,107.35-8.119s84.675,5.875,107.35,8.119V373.892z"/>
			<path d="M45.59,119.53c0.292,0,0.585-0.013,0.879-0.04c4.887-0.449,10.042-0.911,15.309-1.369
				c5.227-0.454,9.096-5.06,8.642-10.287c-0.456-5.227-5.071-9.09-10.288-8.641c-5.298,0.46-10.483,0.926-15.399,1.377
				c-5.225,0.479-9.072,5.103-8.592,10.328C36.594,115.827,40.735,119.53,45.59,119.53z"/>
			<path d="M95.303,96.413c-5.234,0.358-9.187,4.892-8.828,10.127c0.358,5.234,4.894,9.192,10.127,8.828
				c13.324-0.912,23.333-1.375,29.75-1.375c12.02,0,36.695,1.634,71.356,4.725c0.287,0.025,0.572,0.038,0.855,0.038
				c4.865,0,9.011-3.718,9.451-8.657c0.465-5.226-3.393-9.84-8.619-10.306c-35.716-3.185-60.291-4.8-73.044-4.8
				C119.503,94.993,109.057,95.471,95.303,96.413z"/>
			<path d="M286.055,99.878c-5.225,0.468-9.083,5.083-8.615,10.309c0.468,5.226,5.076,9.088,10.309,8.615
				c35.169-3.146,60.17-4.809,72.303-4.809c16.647,0,53.145,3.037,80.831,5.584c0.296,0.027,0.59,0.04,0.881,0.04
				c4.854,0,8.995-3.702,9.449-8.631c0.48-5.224-3.365-9.849-8.59-10.33c-28.082-2.583-65.204-5.663-82.571-5.663
				C347.183,94.993,322.287,96.636,286.055,99.878z"/>
			<path d="M199.395,143.933c-35.716-3.185-60.291-4.8-73.044-4.8c-17.218,0-53.888,3.032-81.617,5.576
				c-5.225,0.479-9.073,5.103-8.593,10.328c0.452,4.93,4.594,8.633,9.449,8.633c0.291,0,0.584-0.013,0.878-0.041
				c27.335-2.507,63.383-5.496,79.883-5.496c12.02,0,36.695,1.634,71.356,4.725c5.232,0.46,9.84-3.393,10.307-8.619
				C208.479,149.013,204.621,144.399,199.395,143.933z"/>
			<path d="M442.623,144.796c-28.082-2.583-65.204-5.663-82.571-5.663c-12.876,0-37.772,1.643-73.997,4.885
				c-5.226,0.468-9.083,5.084-8.615,10.309c0.468,5.227,5.092,9.085,10.309,8.616c35.161-3.147,60.164-4.81,72.303-4.81
				c16.647,0,53.145,3.037,80.831,5.584c0.296,0.027,0.589,0.04,0.881,0.04c4.853,0,8.995-3.701,9.449-8.631
				C451.693,149.902,447.848,145.277,442.623,144.796z"/>
			<path d="M199.395,187.997c-35.716-3.185-60.291-4.8-73.044-4.8c-17.218,0-53.888,3.032-81.617,5.576
				c-5.225,0.479-9.073,5.103-8.593,10.328c0.452,4.93,4.594,8.633,9.449,8.633c0.291,0,0.584-0.013,0.878-0.041
				c27.335-2.507,63.383-5.496,79.883-5.496c12.02,0,36.695,1.634,71.356,4.725c5.232,0.466,9.84-3.393,10.307-8.619
				C208.479,193.077,204.621,188.463,199.395,187.997z"/>
			<path d="M199.395,232.007c-35.719-3.186-60.295-4.801-73.044-4.801c-17.223,0-53.891,3.033-81.618,5.577
				c-5.224,0.479-9.072,5.103-8.592,10.328c0.452,4.93,4.594,8.633,9.449,8.633c0.291,0,0.585-0.013,0.879-0.04
				c27.332-2.508,63.378-5.497,79.882-5.497c12.016,0,36.691,1.634,71.356,4.725c5.232,0.459,9.84-3.393,10.307-8.619
				C208.479,237.087,204.621,232.473,199.395,232.007z"/>
			<path d="M199.395,276.07c-35.716-3.185-60.291-4.8-73.044-4.8c-17.218,0-53.888,3.032-81.617,5.576
				c-5.225,0.479-9.073,5.103-8.593,10.328c0.452,4.93,4.594,8.633,9.449,8.633c0.291,0,0.584-0.013,0.878-0.041
				c27.335-2.507,63.383-5.496,79.883-5.496c12.02,0,36.695,1.634,71.356,4.725c5.232,0.466,9.84-3.393,10.307-8.619
				C208.479,281.15,204.621,276.536,199.395,276.07z"/>
			<path d="M442.623,188.86c-28.082-2.583-65.204-5.663-82.571-5.663c-12.869,0-37.765,1.643-73.997,4.885
				c-5.225,0.468-9.083,5.083-8.615,10.309c0.468,5.227,5.076,9.082,10.309,8.616c35.169-3.147,60.17-4.81,72.303-4.81
				c16.647,0,53.145,3.037,80.831,5.584c0.296,0.027,0.589,0.04,0.881,0.04c4.853,0,8.995-3.702,9.449-8.631
				C451.693,193.966,447.848,189.341,442.623,188.86z"/>
			<path d="M354.827,278.868c0-2.715-1.162-5.301-3.193-7.104l-32.882-29.192c-3.482-3.093-8.694-3.203-12.305-0.262
				c-11.818,9.624-18.595,23.409-18.595,37.822c0,13.791,5.975,26.692,16.827,36.325c1.799,1.598,4.053,2.396,6.307,2.396
				c2.253,0,4.507-0.799,6.307-2.394l34.341-30.486C353.665,284.17,354.827,281.583,354.827,278.868z M311.765,295.957
				c-3.204-4.775-4.913-10.201-4.913-15.826c0-6.282,2.096-12.257,6.015-17.377l18.15,16.112L311.765,295.957z"/>
			<path d="M426.833,243.814c-0.003-0.003-0.005-0.006-0.008-0.008c-10.533-9.35-24.462-14.499-39.223-14.499
				c-13.858,0-27.16,4.618-37.456,13.003c-2.16,1.759-3.439,4.379-3.498,7.164c-0.059,2.786,1.108,5.456,3.191,7.306l24.879,22.087
				l-26.338,23.382c-2.031,1.803-3.193,4.389-3.193,7.105s1.162,5.302,3.193,7.105c10.533,9.35,24.462,14.499,39.223,14.499
				c30.906,0,56.05-22.8,56.05-50.825C443.652,266.344,437.679,253.447,426.833,243.814z M387.602,311.957
				c-6.165,0-12.086-1.283-17.366-3.704l25.097-22.28l0.001-0.001l24.405-21.666c3.204,4.775,4.913,10.202,4.913,15.826
				C424.652,297.68,408.031,311.957,387.602,311.957z"/>
			<path d="M477.875,412.232c-3.598-0.371-88.46-9.075-117.823-9.075c-5.246,0-9.5,4.253-9.5,9.5s4.254,9.5,9.5,9.5
				c28.392,0,115.006,8.885,115.877,8.975c0.331,0.034,0.658,0.051,0.984,0.051c4.809,0,8.936-3.64,9.439-8.528
				C486.889,417.436,483.094,412.769,477.875,412.232z"/>
			<path d="M318.483,405.339c-9.582,0.726-20.493,1.636-32.428,2.703c-5.226,0.468-9.084,5.083-8.616,10.309
				c0.442,4.938,4.587,8.654,9.451,8.654c0.284,0,0.57-0.013,0.857-0.037c11.851-1.06,22.675-1.963,32.172-2.683
				c5.231-0.397,9.151-4.96,8.755-10.191C328.277,408.862,323.695,404.936,318.483,405.339z"/>
			<path d="M244.174,412.232c-3.598-0.371-88.46-9.075-117.823-9.075c-29.363,0-114.225,8.704-117.823,9.075
				c-5.22,0.537-9.014,5.204-8.477,10.423c0.504,4.889,4.63,8.528,9.439,8.528c0.325,0,0.654-0.017,0.984-0.051
				c0.871-0.09,87.481-8.975,115.877-8.975c28.392,0,115.006,8.885,115.877,8.975c5.23,0.545,9.887-3.258,10.423-8.477
				C253.188,417.436,249.393,412.769,244.174,412.232z"/>
		</g>
	</g>
</g>
<g>
</g>
<g>
</g>
<g>
</g>
<g>
</g>
<g>
</g>
<g>
</g>
<g>
</g>
<g>
</g>
<g>
</g>
<g>
</g>
<g>
</g>
<g>
</g>
<g>
</g>
<g>
</g>
<g>
</g>
</svg>
